<svg width="80" height="81" viewBox="0 0 80 81" fill="none" xmlns="http://www.w3.org/2000/svg">
<path fill-rule="evenodd" clip-rule="evenodd" d="M41.1797 4.76453L67.7266 13.8114C68.375 14.038 68.9062 14.7802 68.8906 15.4677V53.1551C68.8906 53.8505 68.4453 54.7567 67.9062 55.1786L40.9766 76.163C40.7109 76.3739 40.3516 76.4833 39.9922 76.4833C39.6328 76.4833 39.2812 76.3739 39.0078 76.163L12.0781 55.1786C11.5391 54.7489 11.0938 53.8426 11.0938 53.1551V15.4677C11.0938 14.7802 11.625 14.0302 12.2734 13.8114L38.8203 4.76453C39.1406 4.65515 39.5703 4.60046 40 4.60046C40.4297 4.60046 40.8594 4.65515 41.1797 4.76453ZM40 69.7958L63.2812 51.6551V18.2489L40 10.3114L16.7187 18.2489V51.6551L40 69.7958Z" fill="#ED4C5C"/>
<path fill-rule="evenodd" clip-rule="evenodd" d="M31.4766 41.8505L25.4219 47.9051C25.3056 48.0226 25.2403 48.1812 25.2403 48.3466C25.2403 48.5119 25.3056 48.6705 25.4219 48.788L28.0781 51.4442C28.3203 51.6864 28.7188 51.6864 28.9609 51.4442L35.0156 45.3895C39.3672 48.1317 45.1797 47.6083 48.9687 43.8192C53.3672 39.4208 53.3672 32.2958 48.9687 27.8973C44.5703 23.4989 37.4453 23.4989 33.0469 27.8973C29.2578 31.6864 28.7344 37.5067 31.4766 41.8505ZM45.4297 31.4364C42.9922 28.9911 39.0312 28.9911 36.5859 31.4364C34.1406 33.8817 34.1484 37.8348 36.5859 40.2802C39.0234 42.7255 42.9844 42.7255 45.4297 40.2802C47.875 37.8427 47.875 33.8817 45.4297 31.4364Z" fill="#ED4C5C"/>
</svg>
