<svg width="80" height="80" viewBox="0 0 80 80" fill="none" xmlns="http://www.w3.org/2000/svg">
<path d="M60.0258 31.9597H58.7512V25.8182C58.7501 25.7791 58.7464 25.7402 58.7399 25.7017C58.7417 25.455 58.6535 25.2161 58.4918 25.0296L48.2608 13.3567L48.2533 13.3492C48.192 13.2831 48.1225 13.2251 48.0465 13.1765L47.9788 13.1352C47.9138 13.0991 47.8451 13.0701 47.7739 13.0488L47.7175 13.03C47.6394 13.0106 47.5592 13.0005 47.4787 13H22.33C21.1813 13 20.2488 13.9332 20.2488 15.0785V31.9578H18.9742C17.331 31.9578 16 33.2871 16 34.9281V50.3768C16 52.0159 17.3329 53.3471 18.9742 53.3471H20.2488V63.9215C20.2488 65.0669 21.1813 66 22.33 66H56.67C57.8168 66 58.7512 65.0669 58.7512 63.9215V53.3471H60.0258C61.6671 53.3471 63 52.0177 63 50.3768V34.9281C63 33.289 61.669 31.9597 60.0258 31.9597ZM22.33 15.0785H46.4372V25.713C46.4372 26.2876 46.9034 26.7513 47.4787 26.7513H56.6719V31.9578H22.33V15.0785V15.0785ZM37.9001 43.5574C35.3734 42.6562 33.7058 41.2593 33.7058 39.0531C33.7058 36.464 35.8942 34.5057 39.4568 34.5057C41.1939 34.5057 42.4328 34.8436 43.3352 35.2698L42.5682 38.0167C41.5851 37.5385 40.5051 37.2925 39.4116 37.2976C37.9227 37.2976 37.2008 37.9942 37.2008 38.7602C37.2008 39.7291 38.0336 40.1553 40.0189 40.8988C42.7035 41.8901 43.9424 43.2852 43.9424 45.4256C43.9424 47.9716 42.0042 50.1327 37.8324 50.1327C36.0953 50.1327 34.3826 49.6595 33.5254 49.1864L34.2247 46.3719C35.4053 46.9739 36.7082 47.2976 38.0336 47.3182C39.6128 47.3182 40.4475 46.6629 40.4475 45.6734C40.4475 44.7272 39.7275 44.1883 37.9001 43.5574V43.5574ZM19.9912 42.521C19.9912 37.3633 23.6892 34.5038 28.2877 34.5038C30.0699 34.5038 31.4216 34.8624 32.0308 35.1572L31.3088 37.8815C30.3956 37.4986 29.4134 37.3069 28.423 37.3183C25.7177 37.3183 23.599 38.9611 23.599 42.3389C23.599 45.3561 25.4019 47.2713 28.4456 47.2713C29.5059 47.2713 30.6339 47.0704 31.3314 46.7756L31.8296 49.4774C31.2205 49.7684 29.7766 50.1308 27.9512 50.1308C22.6966 50.1327 19.9912 46.845 19.9912 42.521V42.521ZM56.67 63.362H22.33V53.3489H56.67V63.362V63.362ZM53.8914 49.9074H49.8776L45.0084 34.7291H48.774L50.6221 41.1485C51.1391 42.9716 51.6128 44.684 51.9738 46.5747H52.0415C52.4259 44.7704 52.8844 42.9827 53.4158 41.2161L55.3559 34.731H59.0069L53.8914 49.9074V49.9074Z" fill="#ED4C5C"/>
</svg>
