<svg width="80" height="81" viewBox="0 0 80 81" fill="none" xmlns="http://www.w3.org/2000/svg">
<path d="M48.75 55.9449H42.9609V37.0153C42.9609 36.6715 42.6797 36.3903 42.3359 36.3903H37.6484C37.3047 36.3903 37.0234 36.6715 37.0234 37.0153V55.9449H31.25C30.7265 55.9449 30.4375 56.5465 30.7578 56.9528L39.5078 68.0231C39.5663 68.0978 39.641 68.1582 39.7262 68.1997C39.8115 68.2413 39.9051 68.2629 40 68.2629C40.0948 68.2629 40.1885 68.2413 40.2737 68.1997C40.359 68.1582 40.4337 68.0978 40.4922 68.0231L49.2422 56.9528C49.5625 56.5465 49.2734 55.9449 48.75 55.9449V55.9449Z" fill="#ED4C5C"/>
<path d="M63.3906 29.4137C59.8125 19.9762 50.6953 13.2653 40.0156 13.2653C29.3359 13.2653 20.2187 19.9684 16.6406 29.4059C9.94531 31.1637 5 37.2653 5 44.5153C5 53.1481 11.9922 60.1403 20.6172 60.1403H23.75C24.0938 60.1403 24.375 59.859 24.375 59.5153V54.8278C24.375 54.484 24.0938 54.2028 23.75 54.2028H20.6172C17.9844 54.2028 15.5078 53.1559 13.6641 51.2574C11.8281 49.3668 10.8516 46.8199 10.9375 44.1793C11.0078 42.1168 11.7109 40.1793 12.9844 38.5465C14.2891 36.8824 16.1172 35.6715 18.1484 35.1324L21.1094 34.359L22.1953 31.4996C22.8672 29.7184 23.8047 28.0543 24.9844 26.5465C26.149 25.052 27.5286 23.7383 29.0781 22.6481C32.2891 20.3903 36.0703 19.1949 40.0156 19.1949C43.9609 19.1949 47.7422 20.3903 50.9531 22.6481C52.5078 23.7418 53.8828 25.0543 55.0469 26.5465C56.2266 28.0543 57.1641 29.7262 57.8359 31.4996L58.9141 34.3512L61.8672 35.1324C66.1016 36.2731 69.0625 40.1246 69.0625 44.5153C69.0625 47.1012 68.0547 49.5387 66.2266 51.3668C65.33 52.2686 64.2635 52.9836 63.0888 53.4704C61.914 53.9572 60.6544 54.2061 59.3828 54.2028H56.25C55.9062 54.2028 55.625 54.484 55.625 54.8278V59.5153C55.625 59.859 55.9062 60.1403 56.25 60.1403H59.3828C68.0078 60.1403 75 53.1481 75 44.5153C75 37.2731 70.0703 31.1793 63.3906 29.4137Z" fill="#ED4C5C"/>
</svg>
