<svg width="80" height="81" viewBox="0 0 80 81" fill="none" xmlns="http://www.w3.org/2000/svg">
<path d="M27.1119 41.4547C27.1119 39.7931 25.9575 38.8005 23.9221 38.8005C23.0913 38.8005 22.5295 38.8814 22.2343 38.9601V44.2968C22.5841 44.3755 23.0126 44.404 23.6007 44.404C25.7717 44.404 27.1119 43.3043 27.1119 41.4547Z" fill="#ED4C5C"/>
<path d="M39.718 38.853C38.8063 38.853 38.216 38.9339 37.8662 39.0148V50.8382C38.216 50.9191 38.7779 50.9191 39.2873 50.9191C42.9865 50.9453 45.4001 48.9077 45.4001 44.592C45.4285 40.8382 43.2291 38.853 39.718 38.853V38.853Z" fill="#ED4C5C"/>
<path d="M63.7697 32.2621H62.2874V25.1108C62.2862 25.0654 62.2818 25.0201 62.2743 24.9753C62.2767 24.6876 62.175 24.4089 61.9879 24.1904L50.088 10.6005L50.0793 10.5917C49.9281 10.4277 49.7355 10.3076 49.5218 10.2441L49.4562 10.2222C49.3653 10.1996 49.2721 10.1878 49.1785 10.1873H19.9326C18.5968 10.1873 17.5124 11.2738 17.5124 12.6075V32.2621H16.0301C14.1193 32.2621 12.5714 33.81 12.5714 35.7208V53.7095C12.5714 55.6182 14.1215 57.1682 16.0301 57.1682H17.5124V69.4836C17.5124 70.8172 18.5968 71.9038 19.9326 71.9038H59.8672C61.2009 71.9038 62.2874 70.8172 62.2874 69.4836V57.1682H63.7697C65.6806 57.1682 67.2284 55.6182 67.2284 53.7095V35.7208C67.2284 33.81 65.6784 32.2621 63.7697 32.2621V32.2621ZM19.9326 12.6075H47.9673V24.9906C47.9673 25.6596 48.5095 26.1996 49.1785 26.1996H59.8694V32.2621H19.9326V12.6075ZM49.6442 44.8114C49.6442 48.2701 48.3849 50.6575 46.6381 52.131C44.736 53.7117 41.8414 54.4638 38.3018 54.4638C36.1833 54.4638 34.6835 54.3283 33.6625 54.1971V36.4467C35.1645 36.2062 37.1212 36.0728 39.1872 36.0728C42.6175 36.0728 44.8431 36.6893 46.5856 38.0033C48.4636 39.396 49.6442 41.6216 49.6442 44.8114V44.8114ZM18.083 54.278V36.4467C19.3423 36.2324 21.1132 36.0728 23.6056 36.0728C26.1264 36.0728 27.9235 36.556 29.1281 37.5201C30.2803 38.4318 31.0564 39.9338 31.0564 41.7025C31.0564 43.4734 30.4683 44.9732 29.3949 45.992C28 47.3059 25.9362 47.8962 23.5225 47.8962C22.9869 47.8962 22.5037 47.87 22.1299 47.8153V54.278H18.083ZM59.8672 68.8277H19.9326V57.1682H59.8672V68.8277ZM63.374 39.5577H56.4282V43.6876H62.9171V47.013H56.4282V54.278H52.3289V36.2062H63.374V39.5577Z" fill="#ED4C5C"/>
</svg>
